<svg width="50" height="42" viewBox="0 0 50 42" fill="none" xmlns="http://www.w3.org/2000/svg">
<path d="M1 19.2857L7.05371 1.67492C7.19252 1.27112 7.5724 1 7.9994 1H40.3269C40.7338 1 41.1002 1.2466 41.2533 1.62362L48.4286 19.2857M1 19.2857H15.4251C15.7008 19.2857 15.9643 19.3996 16.1533 19.6003L20.9642 24.712C23.0786 26.9585 26.703 26.773 28.577 24.3224L32.1284 19.6783C32.3176 19.4308 32.6113 19.2857 32.9227 19.2857H48.4286M1 19.2857V40C1 40.5523 1.44772 41 2 41H47.4286C47.9809 41 48.4286 40.5523 48.4286 40V19.2857" stroke="#70449B" stroke-width="2"/>
</svg>
