<svg width="18" height="18" viewBox="0 0 18 18" fill="none" xmlns="http://www.w3.org/2000/svg">
<path d="M17.0392 1.10188C17.0325 1.06983 17.0169 1.04033 16.9941 1.01687C16.9712 0.993415 16.9422 0.976966 16.9103 0.969463C14.7861 0.449932 9.87904 2.3011 7.21771 4.96048C6.7434 5.43089 6.31091 5.94167 5.92513 6.48704C5.10482 6.41282 4.2845 6.47532 3.58607 6.78001C1.6138 7.6472 1.03997 9.91204 0.879817 10.8843C0.871139 10.9376 0.874846 10.9921 0.890648 11.0438C0.906451 11.0954 0.933926 11.1426 0.970943 11.1819C1.00796 11.2212 1.05353 11.2514 1.10411 11.2703C1.15469 11.2891 1.20893 11.2961 1.26263 11.2906L4.42943 10.9429C4.43162 11.1818 4.44596 11.4203 4.4724 11.6577C4.48892 11.8218 4.56213 11.975 4.67943 12.0909L5.9056 13.3171C6.02163 13.4345 6.17497 13.5077 6.33919 13.5241C6.57516 13.5505 6.81232 13.5648 7.04974 13.5671L6.70247 16.7312C6.69705 16.7848 6.70403 16.839 6.72288 16.8895C6.74172 16.94 6.77193 16.9854 6.81116 17.0224C6.85039 17.0594 6.89759 17.0868 6.94912 17.1026C7.00065 17.1184 7.05512 17.1222 7.10833 17.1136C8.08099 16.9574 10.3505 16.3835 11.2126 14.4116C11.5173 13.7124 11.5798 12.8964 11.5095 12.08C12.0565 11.6946 12.5687 11.2621 13.0404 10.7874C15.7115 8.13118 17.5509 3.33196 17.0392 1.10188ZM10.6661 7.34642C10.4328 7.11316 10.2739 6.81596 10.2096 6.49239C10.1452 6.16883 10.1782 5.83344 10.3044 5.52863C10.4306 5.22383 10.6444 4.96331 10.9187 4.78001C11.193 4.59671 11.5155 4.49888 11.8454 4.49888C12.1754 4.49888 12.4979 4.59671 12.7722 4.78001C13.0465 4.96331 13.2602 5.22383 13.3865 5.52863C13.5127 5.83344 13.5457 6.16883 13.4813 6.49239C13.4169 6.81596 13.258 7.11316 13.0247 7.34642C12.87 7.50149 12.6862 7.62453 12.4838 7.70847C12.2815 7.79242 12.0645 7.83563 11.8454 7.83563C11.6264 7.83563 11.4094 7.79242 11.2071 7.70847C11.0047 7.62453 10.8209 7.50149 10.6661 7.34642V7.34642Z" stroke="white" stroke-linecap="round" stroke-linejoin="round"/>
<path d="M3.28257 12.7499C2.89316 12.7977 2.53088 12.9743 2.25327 13.2515C1.56499 13.9421 1.49976 16.4999 1.49976 16.4999C1.49976 16.4999 4.05913 16.4347 4.7478 15.7456C5.02615 15.4685 5.20298 15.1056 5.24976 14.7156" stroke="white" stroke-linecap="round" stroke-linejoin="round"/>
</svg>
