<svg width="30" height="40" viewBox="0 0 30 40" fill="none" xmlns="http://www.w3.org/2000/svg">
<path fill-rule="evenodd" clip-rule="evenodd" d="M13.8189 0.145299C12.6655 0.558369 11.8315 1.31896 11.3717 2.37731L11.105 2.99108H7.24285C3.63886 2.99108 3.33991 3.00369 2.77004 3.18022C1.64748 3.52783 0.727913 4.40598 0.210579 5.6245C0.0362895 6.03484 0.030098 6.51121 0.00533354 21.2369C-0.0116451 31.3702 0.0119003 36.5771 0.0761567 36.8798C0.32746 38.0628 1.17865 39.1371 2.30036 39.687L2.9388 40H14.9927H27.0466L27.6851 39.687C28.7856 39.1475 29.6356 38.0914 29.9021 36.9325C30.0326 36.3647 30.0326 6.67345 29.9021 6.10557C29.6356 4.94668 28.7856 3.89058 27.6851 3.35111L27.0466 3.03811L22.9485 3.00999L18.8503 2.98196L18.7399 2.63378C18.4464 1.70748 17.6046 0.799233 16.6043 0.329544C16.0751 0.0811566 15.8463 0.0308396 15.1334 0.00610428C14.5011 -0.0158095 14.1712 0.0191773 13.8189 0.145299ZM15.7909 2.13193C16.1946 2.3158 16.7326 2.86712 16.8751 3.24276C16.9232 3.36973 16.9626 3.80942 16.9626 4.21985V4.96615H18.4635H19.9644V5.95368V6.94121H14.9927H10.0211V5.95368V4.96615H11.5219H13.0228V4.21985C13.0228 3.34857 13.0887 3.13667 13.5082 2.65758C13.8935 2.21752 14.4408 1.96066 14.9927 1.96066C15.2249 1.96066 15.5841 2.03769 15.7909 2.13193ZM7.97528 6.21232C8.02659 7.82453 8.24299 8.28829 9.17682 8.7877C9.48657 8.95333 9.81526 8.9633 14.9927 8.9633C20.1702 8.9633 20.4989 8.95333 20.8086 8.7877C21.7425 8.28829 21.9589 7.82453 22.0102 6.21232L22.0499 4.96615H24.1825C25.5275 4.96615 26.4329 5.00565 26.634 5.07317C27.1162 5.23504 27.5406 5.59102 27.7745 6.02967L27.9847 6.42393V21.5191V36.6142L27.7502 37.0333C27.6212 37.2637 27.3327 37.5811 27.1089 37.7386L26.7022 38.0249H14.9927H3.28325L2.87651 37.7386C2.65279 37.5811 2.36424 37.2637 2.23526 37.0333L2.00075 36.6142V21.5191V6.42393L2.21097 6.02967C2.43751 5.60466 2.86404 5.23729 3.31402 5.07966C3.4763 5.02276 4.51388 4.97781 5.76552 4.97358L7.9356 4.96615L7.97528 6.21232ZM5.52997 13.0516C5.0435 13.1715 4.47748 13.6214 4.23584 14.0803C4.02056 14.4891 4.01756 14.5359 4.01756 17.4934C4.01756 20.801 4.02797 20.8665 4.64211 21.4378C5.24659 21.9999 5.2404 21.9991 8.59992 21.9695L11.6767 21.9423L12.0632 21.6857C12.2758 21.5446 12.5681 21.2272 12.7128 20.9803L12.9759 20.5315V17.5219C12.9759 14.6203 12.9687 14.4987 12.774 14.1361C12.54 13.7002 12.2646 13.4298 11.8034 13.1831C11.5061 13.0241 11.2088 13.0059 8.6609 12.9905C7.11312 12.9811 5.70417 13.0087 5.52997 13.0516ZM15.4721 14.1249C14.9302 14.4293 14.8229 15.25 15.2669 15.6952L15.5411 15.9701H20.5072H25.4733L25.7101 15.7327C26.1146 15.327 26.0984 14.604 25.6762 14.2207C25.4887 14.0506 25.2452 14.041 20.5878 14.0205C16.6445 14.0032 15.6528 14.0234 15.4721 14.1249ZM10.9591 17.5219V20.0142H8.47329H5.98746V17.5219V15.0296H8.47329H10.9591V17.5219ZM15.68 19.0451C15.2909 19.1211 14.9927 19.5294 14.9927 19.9862C14.9927 20.9985 15.1582 21.0488 18.484 21.0486C21.5493 21.0485 21.6902 21.0193 21.926 20.3355C22.0463 19.9867 22.0421 19.9177 21.8791 19.5831C21.6048 19.0198 21.4264 18.9892 18.4635 18.9978C17.0447 19.0019 15.7921 19.0232 15.68 19.0451ZM5.52997 25.0901C5.0435 25.21 4.47748 25.6599 4.23584 26.1188C4.02056 26.5276 4.01756 26.5744 4.01756 29.5319C4.01756 32.8395 4.02797 32.905 4.64211 33.4763C5.24659 34.0384 5.2404 34.0376 8.59992 34.0079L11.6767 33.9808L12.0632 33.7242C12.2758 33.5831 12.5681 33.2657 12.7128 33.0188L12.9759 32.57V29.5604C12.9759 26.6588 12.9687 26.5372 12.774 26.1746C12.54 25.7386 12.2646 25.4682 11.8034 25.2215C11.5061 25.0626 11.2088 25.0444 8.6609 25.029C7.11312 25.0196 5.70417 25.0472 5.52997 25.0901ZM15.3784 26.2743C15.0377 26.5617 14.9197 27.0404 15.0887 27.4495C15.3281 28.0289 15.1309 28.0085 20.5084 28.0085H25.4195L25.6937 27.7336C25.9085 27.5183 25.9679 27.3744 25.9679 27.0691C25.9679 26.5818 25.8502 26.3567 25.5007 26.1755C25.2669 26.0543 24.5266 26.0335 20.4452 26.0335H15.6637L15.3784 26.2743ZM10.9591 29.5604V32.0527H8.47329H5.98746V29.5604V27.068H8.47329H10.9591V29.5604ZM15.5556 31.1829C15.3166 31.3026 15.1911 31.4519 15.0948 31.7314C14.9745 32.0803 14.9787 32.1492 15.1417 32.4839C15.4263 33.0683 15.6355 33.1024 18.7292 33.069L21.3871 33.0403L21.6607 32.7331C22.1295 32.2068 21.9667 31.3344 21.3603 31.1224C21.1699 31.0559 20.1263 31.0183 18.473 31.0184C16.196 31.0184 15.8443 31.0383 15.5556 31.1829Z" fill="#70449B"/>
</svg>
