<svg width="19" height="16" viewBox="0 0 19 16" fill="none" xmlns="http://www.w3.org/2000/svg">
<path d="M15.75 3.93713H3.25C2.21447 3.93713 1.375 4.7766 1.375 5.81213V13.3121C1.375 14.3477 2.21447 15.1871 3.25 15.1871H15.75C16.7855 15.1871 17.625 14.3477 17.625 13.3121V5.81213C17.625 4.7766 16.7855 3.93713 15.75 3.93713Z" stroke="white" stroke-linejoin="round"/>
<path d="M15.5687 3.93712V2.76524C15.5687 2.47782 15.5051 2.19396 15.3827 1.93392C15.2603 1.67388 15.082 1.44407 14.8605 1.26088C14.639 1.07768 14.3798 0.945628 14.1015 0.874133C13.8231 0.802639 13.5323 0.793467 13.25 0.847272L2.9625 2.60313C2.51575 2.68827 2.11272 2.92664 1.82291 3.27713C1.5331 3.62762 1.37469 4.06826 1.375 4.52305V6.43712" stroke="white" stroke-linejoin="round"/>
<path d="M13.875 10.8121C13.6278 10.8121 13.3861 10.7388 13.1805 10.6015C12.975 10.4641 12.8148 10.2689 12.7202 10.0405C12.6255 9.81209 12.6008 9.56076 12.649 9.31828C12.6973 9.0758 12.8163 8.85307 12.9911 8.67825C13.1659 8.50344 13.3887 8.38438 13.6311 8.33615C13.8736 8.28792 14.125 8.31268 14.3534 8.40729C14.5818 8.5019 14.777 8.66211 14.9144 8.86767C15.0517 9.07324 15.125 9.31491 15.125 9.56214C15.125 9.89366 14.9933 10.2116 14.7589 10.446C14.5245 10.6805 14.2065 10.8121 13.875 10.8121Z" fill="white"/>
</svg>
