<svg width="19" height="26" viewBox="0 0 19 26" fill="none" xmlns="http://www.w3.org/2000/svg">
<path fill-rule="evenodd" clip-rule="evenodd" d="M0.59723 6.4979C0.765936 6.81145 1.0142 6.84873 2.93479 6.84873L4.71558 6.84873L4.70657 11.8439L4.69755 17.2162L4.88429 17.2162L5.07095 17.2162L6.60598 17.2162L8.14101 17.2162L8.33933 17.2162L8.53773 17.2162L8.55483 11.8887C8.56428 9.17891 8.58159 6.93268 8.59332 6.89699C8.60527 6.86087 9.38963 6.83515 10.3675 6.8389C11.8943 6.84475 12.1522 6.82951 12.3673 6.72071C12.6477 6.57896 12.7677 6.31699 12.6929 6.00994C12.631 5.75621 7.15281 0.181499 6.8345 0.0483491C6.69913 -0.00822094 6.56992 -0.0152991 6.45809 0.0279043C6.30913 0.0854127 1.47045 4.88441 0.757064 5.68216C0.470449 6.00265 0.433174 6.19287 0.59723 6.4979ZM6.42046 20.1783C6.59368 20.4545 11.9192 25.8057 12.1282 25.9135C12.5528 26.1326 12.5164 26.1624 15.5263 23.1266C17.09 21.5494 18.4066 20.1684 18.452 20.0575C18.5516 19.8146 18.4936 19.539 18.302 19.3456C18.1684 19.2107 18.0572 19.2029 16.2662 19.2029L14.3716 19.2029L14.3523 14.1876L14.333 8.79672L14.1583 8.79672L13.9836 8.79672L12.3773 8.81615L10.6956 8.83552L10.4807 8.83552C10.4807 9.04388 10.484 9.34153 10.4737 14.1951L10.4631 19.1668L8.55784 19.186L6.94042 19.2023C6.75779 19.2042 6.58518 19.2861 6.46825 19.4264C6.24911 19.6894 6.23666 19.8852 6.42046 20.1783Z" fill="black"/>
</svg>
