<svg width="40" height="40" viewBox="0 0 40 40" fill="none" xmlns="http://www.w3.org/2000/svg">
<path fill-rule="evenodd" clip-rule="evenodd" d="M0.337919 0.339883L0 0.679767V8.8372V16.9946L0.337919 17.3345L0.675838 17.6744H8.6674C17.3415 17.6744 17.1393 17.6891 17.4341 17.0381C17.5369 16.8113 17.5723 14.7088 17.5723 8.82592C17.5723 0.243605 17.5862 0.435232 16.9397 0.138953C16.714 0.0354651 14.5971 0 8.65619 0H0.675838L0.337919 0.339883ZM23.0185 0.162326C22.4232 0.494186 22.4362 0.302092 22.4318 8.81581C22.4289 14.4449 22.4653 16.8335 22.5569 17.0135C22.6279 17.1531 22.797 17.3578 22.9326 17.4684C23.1609 17.6543 23.7777 17.6694 31.2517 17.6718L39.3242 17.6744L39.6621 17.3345L40 16.9946V8.8372V0.679767L39.6621 0.339883L39.3242 0L31.3095 0.00407019C24.879 0.00744228 23.2402 0.0387213 23.0185 0.162326ZM15.2601 8.8372V15.3488H8.78613H2.31214V8.8372V2.32558H8.78613H15.2601V8.8372ZM37.6879 8.8372V15.3488H31.2139H24.7399V8.8372V2.32558H31.2139H37.6879V8.8372ZM0.337919 22.6654L0 23.0053V31.1628V39.3202L0.337919 39.6601L0.675838 40H8.6674C17.3415 40 17.1393 40.0146 17.4341 39.3637C17.5369 39.1368 17.5723 37.0344 17.5723 31.1515C17.5723 22.5692 17.5862 22.7608 16.9397 22.4645C16.714 22.361 14.5971 22.3256 8.65619 22.3256H0.675838L0.337919 22.6654ZM23.0185 22.4879C22.4232 22.8196 22.4362 22.6286 22.4318 31.1282C22.4288 37.0368 22.463 39.1365 22.5659 39.3637C22.8607 40.0146 22.6585 40 31.3326 40H39.3242L39.6621 39.6601L40 39.3202V31.1628V23.0053L39.6621 22.6654L39.3242 22.3256L31.3095 22.3296C24.879 22.333 23.2402 22.3643 23.0185 22.4879ZM15.2601 31.1628V37.6744H8.78613H2.31214V31.1628V24.6511H8.78613H15.2601V31.1628ZM37.6879 31.1628V37.6744H31.2139H24.7399V31.1628V24.6511H31.2139H37.6879V31.1628Z" fill="#70449B"/>
</svg>
