<svg width="40" height="41" viewBox="0 0 40 41" fill="none" xmlns="http://www.w3.org/2000/svg">
<path fill-rule="evenodd" clip-rule="evenodd" d="M26.6668 15.7393C26.6668 17.5074 25.9645 19.2031 24.7142 20.4534C23.464 21.7036 21.7683 22.406 20.0002 22.406C18.2321 22.406 16.5364 21.7036 15.2861 20.4534C14.0359 19.2031 13.3335 17.5074 13.3335 15.7393C13.3335 13.9712 14.0359 12.2755 15.2861 11.0253C16.5364 9.77501 18.2321 9.07263 20.0002 9.07263C21.7683 9.07263 23.464 9.77501 24.7142 11.0253C25.9645 12.2755 26.6668 13.9712 26.6668 15.7393ZM23.3335 15.7393C23.3335 16.6234 22.9823 17.4712 22.3572 18.0963C21.7321 18.7214 20.8842 19.0726 20.0002 19.0726C19.1161 19.0726 18.2683 18.7214 17.6431 18.0963C17.018 17.4712 16.6668 16.6234 16.6668 15.7393C16.6668 14.8552 17.018 14.0074 17.6431 13.3823C18.2683 12.7572 19.1161 12.406 20.0002 12.406C20.8842 12.406 21.7321 12.7572 22.3572 13.3823C22.9823 14.0074 23.3335 14.8552 23.3335 15.7393Z" fill="white"/>
<path fill-rule="evenodd" clip-rule="evenodd" d="M20.0001 2.40588C9.87508 2.40588 1.66675 10.6142 1.66675 20.7392C1.66675 30.8642 9.87508 39.0725 20.0001 39.0725C30.1251 39.0725 38.3334 30.8642 38.3334 20.7392C38.3334 10.6142 30.1251 2.40588 20.0001 2.40588ZM5.00008 20.7392C5.00008 24.2225 6.18841 27.4292 8.18008 29.9759C9.5788 28.139 11.3832 26.6505 13.4525 25.6264C15.5217 24.6023 17.7997 24.0705 20.1084 24.0725C22.3873 24.0704 24.6366 24.5884 26.685 25.5872C28.7333 26.5859 30.5267 28.0391 31.9284 29.8359C33.3725 27.9419 34.3448 25.7312 34.7649 23.3869C35.185 21.0425 35.0408 18.6318 34.3442 16.3542C33.6477 14.0766 32.4188 11.9976 30.7592 10.2893C29.0997 8.58093 27.0572 7.29232 24.8007 6.53006C22.5443 5.76781 20.1387 5.55384 17.7832 5.90584C15.4276 6.25784 13.1897 7.1657 11.2547 8.55431C9.31966 9.94291 7.7431 11.7723 6.65546 13.8912C5.56783 16.0101 5.00038 18.3575 5.00008 20.7392ZM20.0001 35.7392C16.5567 35.7444 13.2172 34.5598 10.5467 32.3859C11.6216 30.8471 13.0523 29.5907 14.7171 28.7237C16.3818 27.8566 18.2314 27.4045 20.1084 27.4059C21.962 27.4044 23.7892 27.8452 25.4383 28.6916C27.0874 29.538 28.5107 30.7656 29.5901 32.2725C26.8989 34.5171 23.5044 35.7441 20.0001 35.7392Z" fill="white"/>
</svg>
