<svg width="43" height="40" viewBox="0 0 43 40" fill="none" xmlns="http://www.w3.org/2000/svg">
<path fill-rule="evenodd" clip-rule="evenodd" d="M3.51463 0.534499C1.99928 1.33234 1.29858 2.06503 0.617363 3.56333C0.0477229 4.81592 9.09692e-07 6.08684 9.09692e-07 20.0225C9.09692e-07 37.026 -0.0114254 36.9412 2.52692 38.8966L3.79726 39.8753L21.8876 39.9686C37.653 40.0501 40.107 39.9948 40.9804 39.5387C42.97 38.4999 43.0026 38.2579 42.9999 24.536C42.9979 12.7628 42.9606 11.9904 42.3483 11.0521C41.6089 9.91962 40.478 9.19236 39.4285 9.17472C38.7536 9.16352 38.7036 8.96058 38.5749 5.73085L38.4384 2.29851L37.1966 1.14943L35.9545 0L20.2385 0.0020362C6.64311 0.00373302 4.38606 0.0756782 3.51463 0.534499ZM35.5969 3.37125C35.7882 3.73233 35.9448 5.18311 35.9448 6.59521V9.16284H20.4519H4.95906L3.81642 8.009C2.59379 6.77439 2.40727 5.78888 3.14293 4.44907C4.07721 2.74648 4.14375 2.73969 20.2217 2.72679C34.7413 2.71525 35.2609 2.73697 35.5969 3.37125ZM22.2559 11.8778C35.2256 11.8778 39.6073 11.9789 39.9104 12.285C40.1624 12.5395 40.3137 13.8036 40.3137 15.6576V18.623L34.1545 18.7288C28.2837 18.8296 27.9399 18.8731 26.8147 19.6526C24.8138 21.0386 24.0143 22.5487 24.0143 24.9433C24.0143 26.6506 24.182 27.2849 24.9388 28.4398C26.5583 30.9113 27.6159 31.2215 34.419 31.2215H40.3137V33.8686C40.3137 35.4748 40.1551 36.6758 39.9104 36.9228C39.333 37.5059 5.77974 37.5076 4.51276 36.9245C2.73225 36.1053 2.67378 35.6557 2.67378 22.7717V10.8943L3.83927 11.386C4.80547 11.7936 7.95177 11.8778 22.2559 11.8778ZM40.3137 24.9433V28.5066H34.5669H28.8201L27.6344 27.3093C26.5687 26.2332 26.4672 25.9729 26.6312 24.7376C26.8238 23.2899 27.5974 22.1642 28.7192 21.7007C29.0889 21.5479 31.8491 21.4132 34.8525 21.4013L40.3137 21.38V24.9433ZM29.2234 23.7555C28.4144 24.5724 28.3828 25.0587 29.0745 26.0554C30.086 27.514 32.5841 26.7426 32.5841 24.9718C32.5841 23.2733 30.4614 22.5053 29.2234 23.7555Z" fill="#70449B"/>
</svg>
