<svg width="14" height="13" viewBox="0 0 14 13" fill="none" xmlns="http://www.w3.org/2000/svg">
<path fill-rule="evenodd" clip-rule="evenodd" d="M-3.0598e-07 6.6C-3.17571e-07 6.36211 0.0921768 6.13396 0.256253 5.96574C0.420329 5.79752 0.642863 5.70302 0.874902 5.70302L11.0115 5.70302L7.25469 1.85318C7.17334 1.76978 7.10882 1.67077 7.06479 1.56181C7.02077 1.45284 6.99811 1.33606 6.99811 1.21811C6.99811 1.10017 7.02077 0.983385 7.06479 0.874421C7.10882 0.765456 7.17334 0.666449 7.25469 0.583051C7.33603 0.499654 7.4326 0.433499 7.53888 0.388364C7.64517 0.34323 7.75908 0.32 7.87412 0.32C7.98916 0.32 8.10307 0.34323 8.20935 0.388364C8.31564 0.433499 8.41221 0.499653 8.49355 0.583051L13.743 5.96494C13.8244 6.04826 13.8891 6.14724 13.9332 6.25622C13.9773 6.36519 14 6.48202 14 6.6C14 6.71799 13.9773 6.83481 13.9332 6.94379C13.8891 7.05276 13.8244 7.15174 13.743 7.23506L8.49355 12.617C8.41221 12.7004 8.31564 12.7665 8.20935 12.8116C8.10307 12.8568 7.98916 12.88 7.87412 12.88C7.75908 12.88 7.64517 12.8568 7.53889 12.8116C7.4326 12.7665 7.33603 12.7004 7.25469 12.617C7.09041 12.4485 6.99811 12.2201 6.99811 11.9819C6.99811 11.8639 7.02077 11.7472 7.06479 11.6382C7.10882 11.5292 7.17334 11.4302 7.25469 11.3468L11.0115 7.49698L0.874902 7.49698C0.642863 7.49698 0.420329 7.40248 0.256253 7.23426C0.0921768 7.06605 -2.94389e-07 6.8379 -3.0598e-07 6.6Z" fill="#1E1C24"/>
</svg>
